<?xml version="1.0" encoding="UTF-8" standalone="no"?><svg xmlns="http://www.w3.org/2000/svg" xmlns:xlink="http://www.w3.org/1999/xlink" clip-rule="evenodd" stroke-miterlimit="10" viewBox="0 0 1024 768"><desc>SVG generated by Keynote</desc><defs></defs><g transform="matrix(1.00, 0.00, -0.00, -1.00, 0.0, 768.0)"><path d="M 0.0 768.0 L 1024.0 768.0 L 1024.0 0.0 L 0.0 0.0 Z M 0.0 768.0 " fill="#FEFFFF"></path><text xml:space="preserve" font-family="Futura-MediumItalic,Futura" font-style="italic" font-size="22.0" fill="#851001" transform="matrix(1.00, 0.00, -0.00, -1.00, 705.6, 709.1)">C</text><text xml:space="preserve" font-family="Futura-MediumItalic,Futura" font-style="italic" font-size="22.0" fill="#851001" transform="matrix(1.00, 0.00, -0.00, -1.00, 720.7, 709.1)">O</text><text xml:space="preserve" font-family="Futura-MediumItalic,Futura" font-style="italic" font-size="22.0" fill="#851001" transform="matrix(1.00, 0.00, -0.00, -1.00, 740.2, 709.1)">D</text><text xml:space="preserve" font-family="Futura-MediumItalic,Futura" font-style="italic" font-size="22.0" fill="#851001" transform="matrix(1.00, 0.00, -0.00, -1.00, 756.0, 709.1)">E</text><text xml:space="preserve" font-family="Futura-MediumItalic,Futura" font-style="italic" font-size="22.0" fill="#851001" transform="matrix(1.00, 0.00, -0.00, -1.00, 767.7, 709.1)"> </text><text xml:space="preserve" font-family="Futura-MediumItalic,Futura" font-style="italic" font-size="22.0" fill="#851001" transform="matrix(1.00, 0.00, -0.00, -1.00, 774.5, 709.1)">F</text><text xml:space="preserve" font-family="Futura-MediumItalic,Futura" font-style="italic" font-size="22.0" fill="#851001" transform="matrix(1.00, 0.00, -0.00, -1.00, 785.6, 709.1)">O</text><text xml:space="preserve" font-family="Futura-MediumItalic,Futura" font-style="italic" font-size="22.0" fill="#851001" transform="matrix(1.00, 0.00, -0.00, -1.00, 805.1, 709.1)">R</text><text xml:space="preserve" font-family="Futura-MediumItalic,Futura" font-style="italic" font-size="22.0" fill="#851001" transform="matrix(1.00, 0.00, -0.00, -1.00, 818.2, 709.1)"> </text><text xml:space="preserve" font-family="Futura-MediumItalic,Futura" font-style="italic" font-size="22.0" fill="#851001" transform="matrix(1.00, 0.00, -0.00, -1.00, 825.0, 709.1)">J</text><text xml:space="preserve" font-family="Futura-MediumItalic,Futura" font-style="italic" font-size="22.0" fill="#851001" transform="matrix(1.00, 0.00, -0.00, -1.00, 834.3, 709.1)">O</text><text xml:space="preserve" font-family="Futura-MediumItalic,Futura" font-style="italic" font-size="22.0" fill="#851001" transform="matrix(1.00, 0.00, -0.00, -1.00, 853.8, 709.1)">U</text><text xml:space="preserve" font-family="Futura-MediumItalic,Futura" font-style="italic" font-size="22.0" fill="#851001" transform="matrix(1.00, 0.00, -0.00, -1.00, 870.2, 709.1)">R</text><text xml:space="preserve" font-family="Futura-MediumItalic,Futura" font-style="italic" font-size="22.0" fill="#851001" transform="matrix(1.00, 0.00, -0.00, -1.00, 883.3, 709.1)">N</text><text xml:space="preserve" font-family="Futura-MediumItalic,Futura" font-style="italic" font-size="22.0" fill="#851001" transform="matrix(1.00, 0.00, -0.00, -1.00, 901.2, 709.1)">A</text><text xml:space="preserve" font-family="Futura-MediumItalic,Futura" font-style="italic" font-size="22.0" fill="#851001" transform="matrix(1.00, 0.00, -0.00, -1.00, 916.7, 709.1)">L</text><text xml:space="preserve" font-family="Futura-MediumItalic,Futura" font-style="italic" font-size="22.0" fill="#851001" transform="matrix(1.00, 0.00, -0.00, -1.00, 926.2, 709.1)">I</text><text xml:space="preserve" font-family="Futura-MediumItalic,Futura" font-style="italic" font-size="22.0" fill="#851001" transform="matrix(1.00, 0.00, -0.00, -1.00, 932.6, 709.1)">S</text><text xml:space="preserve" font-family="Futura-MediumItalic,Futura" font-style="italic" font-size="22.0" fill="#851001" transform="matrix(1.00, 0.00, -0.00, -1.00, 944.9, 709.1)">M</text><image xlink:href="../../0AAED673-56C7-4698-A778-7DBBEBEFD825/assets/E3F99414649F04407A48A13FAF0EEF29.png" width="1351.00" height="679.00" transform="matrix(0.71, 0.00, -0.00, -0.71, 30.2, 626.1)"></image></g></svg>