<?xml version="1.0" encoding="UTF-8" standalone="no"?><svg xmlns="http://www.w3.org/2000/svg" xmlns:xlink="http://www.w3.org/1999/xlink" clip-rule="evenodd" stroke-miterlimit="10" viewBox="0 0 1024 768"><desc>SVG generated by Keynote</desc><defs></defs><g transform="matrix(1.00, 0.00, -0.00, -1.00, 0.0, 768.0)"><path d="M 0.0 768.0 L 1024.0 768.0 L 1024.0 0.0 L 0.0 0.0 Z M 0.0 768.0 " fill="#FEFFFF"></path><text xml:space="preserve" font-family="Ubuntu-Bold,Ubuntu" font-weight="bold" font-size="35.6" fill="#000000" transform="matrix(1.00, 0.00, -0.00, -1.00, 384.2, 580.8)">A</text><text xml:space="preserve" font-family="Ubuntu-Bold,Ubuntu" font-weight="bold" font-size="35.6" fill="#000000" transform="matrix(1.00, 0.00, -0.00, -1.00, 409.6, 580.8)">a</text><text xml:space="preserve" font-family="Ubuntu-Bold,Ubuntu" font-weight="bold" font-size="35.6" fill="#000000" transform="matrix(1.00, 0.00, -0.00, -1.00, 429.3, 580.8)">r</text><text xml:space="preserve" font-family="Ubuntu-Bold,Ubuntu" font-weight="bold" font-size="35.6" fill="#000000" transform="matrix(1.00, 0.00, -0.00, -1.00, 443.9, 580.8)">o</text><text xml:space="preserve" font-family="Ubuntu-Bold,Ubuntu" font-weight="bold" font-size="35.6" fill="#000000" transform="matrix(1.00, 0.00, -0.00, -1.00, 465.6, 580.8)">n</text><text xml:space="preserve" font-family="Ubuntu-Bold,Ubuntu" font-weight="bold" font-size="35.6" fill="#000000" transform="matrix(1.00, 0.00, -0.00, -1.00, 486.6, 580.8)"> </text><text xml:space="preserve" font-family="Ubuntu-Bold,Ubuntu" font-weight="bold" font-size="35.6" fill="#000000" transform="matrix(1.00, 0.00, -0.00, -1.00, 495.1, 580.8)">W</text><text xml:space="preserve" font-family="Ubuntu-Bold,Ubuntu" font-weight="bold" font-size="35.6" fill="#000000" transform="matrix(1.00, 0.00, -0.00, -1.00, 528.9, 580.8)">i</text><text xml:space="preserve" font-family="Ubuntu-Bold,Ubuntu" font-weight="bold" font-size="35.6" fill="#000000" transform="matrix(1.00, 0.00, -0.00, -1.00, 539.2, 580.8)">l</text><text xml:space="preserve" font-family="Ubuntu-Bold,Ubuntu" font-weight="bold" font-size="35.6" fill="#000000" transform="matrix(1.00, 0.00, -0.00, -1.00, 550.5, 580.8)">l</text><text xml:space="preserve" font-family="Ubuntu-Bold,Ubuntu" font-weight="bold" font-size="35.6" fill="#000000" transform="matrix(1.00, 0.00, -0.00, -1.00, 561.7, 580.8)">i</text><text xml:space="preserve" font-family="Ubuntu-Bold,Ubuntu" font-weight="bold" font-size="35.6" fill="#000000" transform="matrix(1.00, 0.00, -0.00, -1.00, 572.0, 580.8)">a</text><text xml:space="preserve" font-family="Ubuntu-Bold,Ubuntu" font-weight="bold" font-size="35.6" fill="#000000" transform="matrix(1.00, 0.00, -0.00, -1.00, 591.7, 580.8)">m</text><text xml:space="preserve" font-family="Ubuntu-Bold,Ubuntu" font-weight="bold" font-size="35.6" fill="#000000" transform="matrix(1.00, 0.00, -0.00, -1.00, 622.5, 580.8)">s</text><text xml:space="preserve" font-family="Ubuntu-Bold,Ubuntu" font-weight="bold" font-size="35.6" fill="#000000" transform="matrix(1.00, 0.00, -0.00, -1.00, 639.8, 580.8)"> </text><text xml:space="preserve" font-family="Ubuntu-Light,Ubuntu" font-size="35.6" fill="#000000" transform="matrix(1.00, 0.00, -0.00, -1.00, 280.2, 512.1)">N</text><text xml:space="preserve" font-family="Ubuntu-Light,Ubuntu" font-size="35.6" fill="#000000" transform="matrix(1.00, 0.00, -0.00, -1.00, 305.5, 512.1)">e</text><text xml:space="preserve" font-family="Ubuntu-Light,Ubuntu" font-size="35.6" fill="#000000" transform="matrix(1.00, 0.00, -0.00, -1.00, 325.0, 512.1)">w</text><text xml:space="preserve" font-family="Ubuntu-Light,Ubuntu" font-size="35.6" fill="#000000" transform="matrix(1.00, 0.00, -0.00, -1.00, 352.6, 512.1)">s</text><text xml:space="preserve" font-family="Ubuntu-Light,Ubuntu" font-size="35.6" fill="#000000" transform="matrix(1.00, 0.00, -0.00, -1.00, 367.9, 512.1)"> </text><text xml:space="preserve" font-family="Ubuntu-Light,Ubuntu" font-size="35.6" fill="#000000" transform="matrix(1.00, 0.00, -0.00, -1.00, 376.0, 512.1)">A</text><text xml:space="preserve" font-family="Ubuntu-Light,Ubuntu" font-size="35.6" fill="#000000" transform="matrix(1.00, 0.00, -0.00, -1.00, 398.9, 512.1)">p</text><text xml:space="preserve" font-family="Ubuntu-Light,Ubuntu" font-size="35.6" fill="#000000" transform="matrix(1.00, 0.00, -0.00, -1.00, 419.6, 512.1)">p</text><text xml:space="preserve" font-family="Ubuntu-Light,Ubuntu" font-size="35.6" fill="#000000" transform="matrix(1.00, 0.00, -0.00, -1.00, 440.4, 512.1)">l</text><text xml:space="preserve" font-family="Ubuntu-Light,Ubuntu" font-size="35.6" fill="#000000" transform="matrix(1.00, 0.00, -0.00, -1.00, 449.5, 512.1)">i</text><text xml:space="preserve" font-family="Ubuntu-Light,Ubuntu" font-size="35.6" fill="#000000" transform="matrix(1.00, 0.00, -0.00, -1.00, 458.0, 512.1)">c</text><text xml:space="preserve" font-family="Ubuntu-Light,Ubuntu" font-size="35.6" fill="#000000" transform="matrix(1.00, 0.00, -0.00, -1.00, 474.3, 512.1)">a</text><text xml:space="preserve" font-family="Ubuntu-Light,Ubuntu" font-size="35.6" fill="#000000" transform="matrix(1.00, 0.00, -0.00, -1.00, 492.5, 512.1)">t</text><text xml:space="preserve" font-family="Ubuntu-Light,Ubuntu" font-size="35.6" fill="#000000" transform="matrix(1.00, 0.00, -0.00, -1.00, 506.3, 512.1)">i</text><text xml:space="preserve" font-family="Ubuntu-Light,Ubuntu" font-size="35.6" fill="#000000" transform="matrix(1.00, 0.00, -0.00, -1.00, 514.7, 512.1)">o</text><text xml:space="preserve" font-family="Ubuntu-Light,Ubuntu" font-size="35.6" fill="#000000" transform="matrix(1.00, 0.00, -0.00, -1.00, 535.5, 512.1)">n</text><text xml:space="preserve" font-family="Ubuntu-Light,Ubuntu" font-size="35.6" fill="#000000" transform="matrix(1.00, 0.00, -0.00, -1.00, 555.7, 512.1)">s</text><text xml:space="preserve" font-family="Ubuntu-Light,Ubuntu" font-size="35.6" fill="#000000" transform="matrix(1.00, 0.00, -0.00, -1.00, 571.0, 512.1)"> </text><text xml:space="preserve" font-family="Ubuntu-Light,Ubuntu" font-size="35.6" fill="#000000" transform="matrix(1.00, 0.00, -0.00, -1.00, 579.1, 512.1)">D</text><text xml:space="preserve" font-family="Ubuntu-Light,Ubuntu" font-size="35.6" fill="#000000" transform="matrix(1.00, 0.00, -0.00, -1.00, 604.1, 512.1)">e</text><text xml:space="preserve" font-family="Ubuntu-Light,Ubuntu" font-size="35.6" fill="#000000" transform="matrix(1.00, 0.00, -0.00, -1.00, 623.7, 512.1)">v</text><text xml:space="preserve" font-family="Ubuntu-Light,Ubuntu" font-size="35.6" fill="#000000" transform="matrix(1.00, 0.00, -0.00, -1.00, 640.8, 512.1)">e</text><text xml:space="preserve" font-family="Ubuntu-Light,Ubuntu" font-size="35.6" fill="#000000" transform="matrix(1.00, 0.00, -0.00, -1.00, 660.3, 512.1)">l</text><text xml:space="preserve" font-family="Ubuntu-Light,Ubuntu" font-size="35.6" fill="#000000" transform="matrix(1.00, 0.00, -0.00, -1.00, 669.4, 512.1)">o</text><text xml:space="preserve" font-family="Ubuntu-Light,Ubuntu" font-size="35.6" fill="#000000" transform="matrix(1.00, 0.00, -0.00, -1.00, 690.1, 512.1)">p</text><text xml:space="preserve" font-family="Ubuntu-Light,Ubuntu" font-size="35.6" fill="#000000" transform="matrix(1.00, 0.00, -0.00, -1.00, 710.9, 512.1)">e</text><text xml:space="preserve" font-family="Ubuntu-Light,Ubuntu" font-size="35.6" fill="#000000" transform="matrix(1.00, 0.00, -0.00, -1.00, 730.5, 512.1)">r</text><text xml:space="preserve" font-family="Ubuntu-Light,Ubuntu" font-size="35.6" fill="#000000" transform="matrix(1.00, 0.00, -0.00, -1.00, 743.8, 512.1)"> </text><text xml:space="preserve" font-family="Ubuntu-Light,Ubuntu" font-size="35.6" fill="#000000" transform="matrix(1.00, 0.00, -0.00, -1.00, 751.9, 512.1)"> </text><text xml:space="preserve" font-family="Ubuntu-Light,Ubuntu" font-size="35.6" fill="#000000" transform="matrix(1.00, 0.00, -0.00, -1.00, 382.9, 443.4)">(</text><text xml:space="preserve" font-family="Ubuntu-Light,Ubuntu" font-size="35.6" fill="#000000" transform="matrix(1.00, 0.00, -0.00, -1.00, 393.9, 443.4)">a</text><text xml:space="preserve" font-family="Ubuntu-Light,Ubuntu" font-size="35.6" fill="#000000" transform="matrix(1.00, 0.00, -0.00, -1.00, 412.1, 443.4)">k</text><text xml:space="preserve" font-family="Ubuntu-Light,Ubuntu" font-size="35.6" fill="#000000" transform="matrix(1.00, 0.00, -0.00, -1.00, 429.7, 443.4)">a</text><text xml:space="preserve" font-family="Ubuntu-Light,Ubuntu" font-size="35.6" fill="#000000" transform="matrix(1.00, 0.00, -0.00, -1.00, 447.9, 443.4)"> </text><text xml:space="preserve" font-family="Ubuntu-Light,Ubuntu" font-size="35.6" fill="#000000" transform="matrix(1.00, 0.00, -0.00, -1.00, 456.0, 443.4)">a</text><text xml:space="preserve" font-family="Ubuntu-Light,Ubuntu" font-size="35.6" fill="#000000" transform="matrix(1.00, 0.00, -0.00, -1.00, 474.1, 443.4)"> </text><text xml:space="preserve" font-family="Ubuntu-Light,Ubuntu" font-size="35.6" fill="#000000" transform="matrix(1.00, 0.00, -0.00, -1.00, 482.3, 443.4)">j</text><text xml:space="preserve" font-family="Ubuntu-Light,Ubuntu" font-size="35.6" fill="#000000" transform="matrix(1.00, 0.00, -0.00, -1.00, 490.7, 443.4)">o</text><text xml:space="preserve" font-family="Ubuntu-Light,Ubuntu" font-size="35.6" fill="#000000" transform="matrix(1.00, 0.00, -0.00, -1.00, 511.4, 443.4)">u</text><text xml:space="preserve" font-family="Ubuntu-Light,Ubuntu" font-size="35.6" fill="#000000" transform="matrix(1.00, 0.00, -0.00, -1.00, 531.7, 443.4)">r</text><text xml:space="preserve" font-family="Ubuntu-Light,Ubuntu" font-size="35.6" fill="#000000" transform="matrix(1.00, 0.00, -0.00, -1.00, 545.1, 443.4)">n</text><text xml:space="preserve" font-family="Ubuntu-Light,Ubuntu" font-size="35.6" fill="#000000" transform="matrix(1.00, 0.00, -0.00, -1.00, 565.3, 443.4)">a</text><text xml:space="preserve" font-family="Ubuntu-Light,Ubuntu" font-size="35.6" fill="#000000" transform="matrix(1.00, 0.00, -0.00, -1.00, 583.5, 443.4)">l</text><text xml:space="preserve" font-family="Ubuntu-Light,Ubuntu" font-size="35.6" fill="#000000" transform="matrix(1.00, 0.00, -0.00, -1.00, 592.6, 443.4)">i</text><text xml:space="preserve" font-family="Ubuntu-Light,Ubuntu" font-size="35.6" fill="#000000" transform="matrix(1.00, 0.00, -0.00, -1.00, 601.0, 443.4)">s</text><text xml:space="preserve" font-family="Ubuntu-Light,Ubuntu" font-size="35.6" fill="#000000" transform="matrix(1.00, 0.00, -0.00, -1.00, 616.3, 443.4)">t</text><text xml:space="preserve" font-family="Ubuntu-Light,Ubuntu" font-size="35.6" fill="#000000" transform="matrix(1.00, 0.00, -0.00, -1.00, 630.1, 443.4)">)</text><text xml:space="preserve" font-family="Ubuntu-Bold,Ubuntu" font-weight="bold" font-size="35.6" fill="#000000" transform="matrix(1.00, 0.00, -0.00, -1.00, 641.1, 443.4)"> </text><text xml:space="preserve" font-family="HelveticaNeue-Light,Helvetica Neue" font-size="35.6" fill="#000000" transform="matrix(1.00, 0.00, -0.00, -1.00, 420.6, 230.1)">C</text><text xml:space="preserve" font-family="HelveticaNeue-Light,Helvetica Neue" font-size="35.6" fill="#000000" transform="matrix(1.00, 0.00, -0.00, -1.00, 445.7, 230.1)">l</text><text xml:space="preserve" font-family="HelveticaNeue-Light,Helvetica Neue" font-size="35.6" fill="#000000" transform="matrix(1.00, 0.00, -0.00, -1.00, 452.2, 230.1)">a</text><text xml:space="preserve" font-family="HelveticaNeue-Light,Helvetica Neue" font-size="35.6" fill="#000000" transform="matrix(1.00, 0.00, -0.00, -1.00, 470.7, 230.1)">s</text><text xml:space="preserve" font-family="HelveticaNeue-Light,Helvetica Neue" font-size="35.6" fill="#000000" transform="matrix(1.00, 0.00, -0.00, -1.00, 487.9, 230.1)">s</text><text xml:space="preserve" font-family="HelveticaNeue-Light,Helvetica Neue" font-size="35.6" fill="#000000" transform="matrix(1.00, 0.00, -0.00, -1.00, 505.0, 230.1)"> </text><text xml:space="preserve" font-family="HelveticaNeue-Light,Helvetica Neue" font-size="35.6" fill="#000000" transform="matrix(1.00, 0.00, -0.00, -1.00, 514.9, 230.1)">o</text><text xml:space="preserve" font-family="HelveticaNeue-Light,Helvetica Neue" font-size="35.6" fill="#000000" transform="matrix(1.00, 0.00, -0.00, -1.00, 534.8, 230.1)">f</text><text xml:space="preserve" font-family="HelveticaNeue-Light,Helvetica Neue" font-size="35.6" fill="#000000" transform="matrix(1.00, 0.00, -0.00, -1.00, 544.0, 230.1)"> </text><text xml:space="preserve" font-family="HelveticaNeue-Light,Helvetica Neue" font-size="35.6" fill="#000000" transform="matrix(1.00, 0.00, -0.00, -1.00, 553.9, 230.1)">’</text><text xml:space="preserve" font-family="HelveticaNeue-Light,Helvetica Neue" font-size="35.6" fill="#000000" transform="matrix(1.00, 0.00, -0.00, -1.00, 563.8, 230.1)">1</text><text xml:space="preserve" font-family="HelveticaNeue-Light,Helvetica Neue" font-size="35.6" fill="#000000" transform="matrix(1.00, 0.00, -0.00, -1.00, 583.6, 230.1)">2</text><text xml:space="preserve" font-family="HelveticaNeue-Light,Helvetica Neue" font-size="35.6" fill="#000000" transform="matrix(1.00, 0.00, -0.00, -1.00, 603.4, 230.1)"> </text><text xml:space="preserve" font-family="Ubuntu-Light,Ubuntu" font-size="35.6" fill="#0264C0" transform="matrix(1.00, 0.00, -0.00, -1.00, 403.1, 160.5)">@</text><text xml:space="preserve" font-family="Ubuntu-Light,Ubuntu" font-size="35.6" fill="#0264C0" transform="matrix(1.00, 0.00, -0.00, -1.00, 436.6, 160.5)">a</text><text xml:space="preserve" font-family="Ubuntu-Light,Ubuntu" font-size="35.6" fill="#0264C0" transform="matrix(1.00, 0.00, -0.00, -1.00, 454.7, 160.5)">b</text><text xml:space="preserve" font-family="Ubuntu-Light,Ubuntu" font-size="35.6" fill="#0264C0" transform="matrix(1.00, 0.00, -0.00, -1.00, 475.5, 160.5)">o</text><text xml:space="preserve" font-family="Ubuntu-Light,Ubuntu" font-size="35.6" fill="#0264C0" transform="matrix(1.00, 0.00, -0.00, -1.00, 496.2, 160.5)">u</text><text xml:space="preserve" font-family="Ubuntu-Light,Ubuntu" font-size="35.6" fill="#0264C0" transform="matrix(1.00, 0.00, -0.00, -1.00, 516.5, 160.5)">t</text><text xml:space="preserve" font-family="Ubuntu-Light,Ubuntu" font-size="35.6" fill="#0264C0" transform="matrix(1.00, 0.00, -0.00, -1.00, 530.3, 160.5)">a</text><text xml:space="preserve" font-family="Ubuntu-Light,Ubuntu" font-size="35.6" fill="#0264C0" transform="matrix(1.00, 0.00, -0.00, -1.00, 548.4, 160.5)">a</text><text xml:space="preserve" font-family="Ubuntu-Light,Ubuntu" font-size="35.6" fill="#0264C0" transform="matrix(1.00, 0.00, -0.00, -1.00, 566.6, 160.5)">r</text><text xml:space="preserve" font-family="Ubuntu-Light,Ubuntu" font-size="35.6" fill="#0264C0" transform="matrix(1.00, 0.00, -0.00, -1.00, 579.9, 160.5)">o</text><text xml:space="preserve" font-family="Ubuntu-Light,Ubuntu" font-size="35.6" fill="#0264C0" transform="matrix(1.00, 0.00, -0.00, -1.00, 600.7, 160.5)">n</text><text xml:space="preserve" font-family="Futura-MediumItalic,Futura" font-style="italic" font-size="22.0" fill="#851001" transform="matrix(1.00, 0.00, -0.00, -1.00, 705.6, 709.1)">C</text><text xml:space="preserve" font-family="Futura-MediumItalic,Futura" font-style="italic" font-size="22.0" fill="#851001" transform="matrix(1.00, 0.00, -0.00, -1.00, 720.7, 709.1)">O</text><text xml:space="preserve" font-family="Futura-MediumItalic,Futura" font-style="italic" font-size="22.0" fill="#851001" transform="matrix(1.00, 0.00, -0.00, -1.00, 740.2, 709.1)">D</text><text xml:space="preserve" font-family="Futura-MediumItalic,Futura" font-style="italic" font-size="22.0" fill="#851001" transform="matrix(1.00, 0.00, -0.00, -1.00, 756.0, 709.1)">E</text><text xml:space="preserve" font-family="Futura-MediumItalic,Futura" font-style="italic" font-size="22.0" fill="#851001" transform="matrix(1.00, 0.00, -0.00, -1.00, 767.7, 709.1)"> </text><text xml:space="preserve" font-family="Futura-MediumItalic,Futura" font-style="italic" font-size="22.0" fill="#851001" transform="matrix(1.00, 0.00, -0.00, -1.00, 774.5, 709.1)">F</text><text xml:space="preserve" font-family="Futura-MediumItalic,Futura" font-style="italic" font-size="22.0" fill="#851001" transform="matrix(1.00, 0.00, -0.00, -1.00, 785.6, 709.1)">O</text><text xml:space="preserve" font-family="Futura-MediumItalic,Futura" font-style="italic" font-size="22.0" fill="#851001" transform="matrix(1.00, 0.00, -0.00, -1.00, 805.1, 709.1)">R</text><text xml:space="preserve" font-family="Futura-MediumItalic,Futura" font-style="italic" font-size="22.0" fill="#851001" transform="matrix(1.00, 0.00, -0.00, -1.00, 818.2, 709.1)"> </text><text xml:space="preserve" font-family="Futura-MediumItalic,Futura" font-style="italic" font-size="22.0" fill="#851001" transform="matrix(1.00, 0.00, -0.00, -1.00, 825.0, 709.1)">J</text><text xml:space="preserve" font-family="Futura-MediumItalic,Futura" font-style="italic" font-size="22.0" fill="#851001" transform="matrix(1.00, 0.00, -0.00, -1.00, 834.3, 709.1)">O</text><text xml:space="preserve" font-family="Futura-MediumItalic,Futura" font-style="italic" font-size="22.0" fill="#851001" transform="matrix(1.00, 0.00, -0.00, -1.00, 853.8, 709.1)">U</text><text xml:space="preserve" font-family="Futura-MediumItalic,Futura" font-style="italic" font-size="22.0" fill="#851001" transform="matrix(1.00, 0.00, -0.00, -1.00, 870.2, 709.1)">R</text><text xml:space="preserve" font-family="Futura-MediumItalic,Futura" font-style="italic" font-size="22.0" fill="#851001" transform="matrix(1.00, 0.00, -0.00, -1.00, 883.3, 709.1)">N</text><text xml:space="preserve" font-family="Futura-MediumItalic,Futura" font-style="italic" font-size="22.0" fill="#851001" transform="matrix(1.00, 0.00, -0.00, -1.00, 901.2, 709.1)">A</text><text xml:space="preserve" font-family="Futura-MediumItalic,Futura" font-style="italic" font-size="22.0" fill="#851001" transform="matrix(1.00, 0.00, -0.00, -1.00, 916.7, 709.1)">L</text><text xml:space="preserve" font-family="Futura-MediumItalic,Futura" font-style="italic" font-size="22.0" fill="#851001" transform="matrix(1.00, 0.00, -0.00, -1.00, 926.2, 709.1)">I</text><text xml:space="preserve" font-family="Futura-MediumItalic,Futura" font-style="italic" font-size="22.0" fill="#851001" transform="matrix(1.00, 0.00, -0.00, -1.00, 932.6, 709.1)">S</text><text xml:space="preserve" font-family="Futura-MediumItalic,Futura" font-style="italic" font-size="22.0" fill="#851001" transform="matrix(1.00, 0.00, -0.00, -1.00, 944.9, 709.1)">M</text><image xlink:href="3196425B5384435E8A1176F407812CB4.png" width="280.00" height="88.00" transform="matrix(1.00, 0.00, -0.00, -1.00, 372.0, 397.0)"></image></g></svg>