<?xml version="1.0" encoding="UTF-8" standalone="no"?><svg xmlns="http://www.w3.org/2000/svg" xmlns:xlink="http://www.w3.org/1999/xlink" clip-rule="evenodd" stroke-miterlimit="10" viewBox="0 0 1024 768"><desc>SVG generated by Keynote</desc><defs></defs><g transform="matrix(1.00, 0.00, -0.00, -1.00, 0.0, 768.0)"><path d="M 0.0 768.0 L 1024.0 768.0 L 1024.0 0.0 L 0.0 0.0 Z M 0.0 768.0 " fill="#F5D327"></path><text xml:space="preserve" font-family="Futura-MediumItalic,Futura" font-style="italic" font-size="22.0" fill="#000000" transform="matrix(1.00, 0.00, -0.00, -1.00, 705.6, 709.1)">C</text><text xml:space="preserve" font-family="Futura-MediumItalic,Futura" font-style="italic" font-size="22.0" fill="#000000" transform="matrix(1.00, 0.00, -0.00, -1.00, 720.7, 709.1)">O</text><text xml:space="preserve" font-family="Futura-MediumItalic,Futura" font-style="italic" font-size="22.0" fill="#000000" transform="matrix(1.00, 0.00, -0.00, -1.00, 740.2, 709.1)">D</text><text xml:space="preserve" font-family="Futura-MediumItalic,Futura" font-style="italic" font-size="22.0" fill="#000000" transform="matrix(1.00, 0.00, -0.00, -1.00, 756.0, 709.1)">E</text><text xml:space="preserve" font-family="Futura-MediumItalic,Futura" font-style="italic" font-size="22.0" fill="#000000" transform="matrix(1.00, 0.00, -0.00, -1.00, 767.7, 709.1)"> </text><text xml:space="preserve" font-family="Futura-MediumItalic,Futura" font-style="italic" font-size="22.0" fill="#000000" transform="matrix(1.00, 0.00, -0.00, -1.00, 774.5, 709.1)">F</text><text xml:space="preserve" font-family="Futura-MediumItalic,Futura" font-style="italic" font-size="22.0" fill="#000000" transform="matrix(1.00, 0.00, -0.00, -1.00, 785.6, 709.1)">O</text><text xml:space="preserve" font-family="Futura-MediumItalic,Futura" font-style="italic" font-size="22.0" fill="#000000" transform="matrix(1.00, 0.00, -0.00, -1.00, 805.1, 709.1)">R</text><text xml:space="preserve" font-family="Futura-MediumItalic,Futura" font-style="italic" font-size="22.0" fill="#000000" transform="matrix(1.00, 0.00, -0.00, -1.00, 818.2, 709.1)"> </text><text xml:space="preserve" font-family="Futura-MediumItalic,Futura" font-style="italic" font-size="22.0" fill="#000000" transform="matrix(1.00, 0.00, -0.00, -1.00, 825.0, 709.1)">J</text><text xml:space="preserve" font-family="Futura-MediumItalic,Futura" font-style="italic" font-size="22.0" fill="#000000" transform="matrix(1.00, 0.00, -0.00, -1.00, 834.3, 709.1)">O</text><text xml:space="preserve" font-family="Futura-MediumItalic,Futura" font-style="italic" font-size="22.0" fill="#000000" transform="matrix(1.00, 0.00, -0.00, -1.00, 853.8, 709.1)">U</text><text xml:space="preserve" font-family="Futura-MediumItalic,Futura" font-style="italic" font-size="22.0" fill="#000000" transform="matrix(1.00, 0.00, -0.00, -1.00, 870.2, 709.1)">R</text><text xml:space="preserve" font-family="Futura-MediumItalic,Futura" font-style="italic" font-size="22.0" fill="#000000" transform="matrix(1.00, 0.00, -0.00, -1.00, 883.3, 709.1)">N</text><text xml:space="preserve" font-family="Futura-MediumItalic,Futura" font-style="italic" font-size="22.0" fill="#000000" transform="matrix(1.00, 0.00, -0.00, -1.00, 901.2, 709.1)">A</text><text xml:space="preserve" font-family="Futura-MediumItalic,Futura" font-style="italic" font-size="22.0" fill="#000000" transform="matrix(1.00, 0.00, -0.00, -1.00, 916.7, 709.1)">L</text><text xml:space="preserve" font-family="Futura-MediumItalic,Futura" font-style="italic" font-size="22.0" fill="#000000" transform="matrix(1.00, 0.00, -0.00, -1.00, 926.2, 709.1)">I</text><text xml:space="preserve" font-family="Futura-MediumItalic,Futura" font-style="italic" font-size="22.0" fill="#000000" transform="matrix(1.00, 0.00, -0.00, -1.00, 932.6, 709.1)">S</text><text xml:space="preserve" font-family="Futura-MediumItalic,Futura" font-style="italic" font-size="22.0" fill="#000000" transform="matrix(1.00, 0.00, -0.00, -1.00, 944.9, 709.1)">M</text><image xlink:href="../../2C2FA162-2720-49A3-AE69-33D9454C31D2/assets/A9D492F937CB55AB42AEBDEE9BBB2F1E.png" width="1200.00" height="1200.00" transform="matrix(0.14, 0.00, -0.00, -0.14, 51.5, 376.4)"></image><path d="M -0.4 0.5 L 887.6 0.5 L 888.6 0.5 " fill="none" stroke="#000000" stroke-width="2.00" transform="matrix(1.00, 0.00, 0.00, -1.00, 63.4, 113.5)"></path><path d="M 951.0 108.2 L 960.6 113.0 L 951.0 117.8 Z M 951.0 108.2 " fill="#000000"></path><text xml:space="preserve" font-family="Futura-CondensedMedium,Futura" font-size="30.0" fill="#000000" transform="matrix(1.00, 0.00, -0.00, -1.00, 84.7, 63.5)">‘</text><text xml:space="preserve" font-family="Futura-CondensedMedium,Futura" font-size="30.0" fill="#000000" transform="matrix(1.00, 0.00, -0.00, -1.00, 91.6, 63.5)">9</text><text xml:space="preserve" font-family="Futura-CondensedMedium,Futura" font-size="30.0" fill="#000000" transform="matrix(1.00, 0.00, -0.00, -1.00, 104.1, 63.5)">0</text><text xml:space="preserve" font-family="Futura-CondensedMedium,Futura" font-size="30.0" fill="#000000" transform="matrix(1.00, 0.00, -0.00, -1.00, 116.5, 63.5)">s</text><text xml:space="preserve" font-family="Futura-CondensedMedium,Futura" font-size="30.0" fill="#000000" transform="matrix(1.00, 0.00, -0.00, -1.00, 889.7, 63.5)">R</text><text xml:space="preserve" font-family="Futura-CondensedMedium,Futura" font-size="30.0" fill="#000000" transform="matrix(1.00, 0.00, -0.00, -1.00, 901.9, 63.5)">o</text><text xml:space="preserve" font-family="Futura-CondensedMedium,Futura" font-size="30.0" fill="#000000" transform="matrix(1.00, 0.00, -0.00, -1.00, 913.5, 63.5)">b</text><text xml:space="preserve" font-family="Futura-CondensedMedium,Futura" font-size="30.0" fill="#000000" transform="matrix(1.00, 0.00, -0.00, -1.00, 925.3, 63.5)">o</text><text xml:space="preserve" font-family="Futura-CondensedMedium,Futura" font-size="30.0" fill="#000000" transform="matrix(1.00, 0.00, -0.00, -1.00, 936.8, 63.5)">t</text><text xml:space="preserve" font-family="Futura-CondensedMedium,Futura" font-size="30.0" fill="#000000" transform="matrix(1.00, 0.00, -0.00, -1.00, 943.5, 63.5)">s</text><image xlink:href="../../B96777C4-C0B1-429A-BFB8-D48243765D6A/assets/0773629D6DAF0687358D7B284440CF62.png" width="1200.00" height="1200.00" transform="matrix(0.14, 0.00, -0.00, -0.14, 810.4, 376.4)"></image><text xml:space="preserve" font-family="Helvetica-Light,Helvetica" font-size="200.0" fill="#000000" transform="matrix(1.00, 0.00, -0.00, -1.00, 592.4, 216.9)">?</text><text xml:space="preserve" font-family="Futura-CondensedMedium,Futura" font-size="30.0" fill="#000000" transform="matrix(1.00, 0.00, -0.00, -1.00, 384.9, 63.5)">‘</text><text xml:space="preserve" font-family="Futura-CondensedMedium,Futura" font-size="30.0" fill="#000000" transform="matrix(1.00, 0.00, -0.00, -1.00, 391.8, 63.5)">0</text><text xml:space="preserve" font-family="Futura-CondensedMedium,Futura" font-size="30.0" fill="#000000" transform="matrix(1.00, 0.00, -0.00, -1.00, 404.2, 63.5)">0</text><text xml:space="preserve" font-family="Futura-CondensedMedium,Futura" font-size="30.0" fill="#000000" transform="matrix(1.00, 0.00, -0.00, -1.00, 416.7, 63.5)">s</text><image xlink:href="../../B96777C4-C0B1-429A-BFB8-D48243765D6A/assets/3D4ED806EE08D717A74C6597B6EFD0FA.png" width="1200.00" height="1200.00" transform="matrix(0.16, 0.00, -0.00, -0.16, 309.2, 386.9)"></image><text xml:space="preserve" font-family="Futura-CondensedMedium,Futura" font-size="30.0" fill="#000000" transform="matrix(1.00, 0.00, -0.00, -1.00, 584.8, 63.5)">N</text><text xml:space="preserve" font-family="Futura-CondensedMedium,Futura" font-size="30.0" fill="#000000" transform="matrix(1.00, 0.00, -0.00, -1.00, 598.9, 63.5)">e</text><text xml:space="preserve" font-family="Futura-CondensedMedium,Futura" font-size="30.0" fill="#000000" transform="matrix(1.00, 0.00, -0.00, -1.00, 609.7, 63.5)">x</text><text xml:space="preserve" font-family="Futura-CondensedMedium,Futura" font-size="30.0" fill="#000000" transform="matrix(1.00, 0.00, -0.00, -1.00, 621.0, 63.5)">t</text><text xml:space="preserve" font-family="Futura-CondensedMedium,Futura" font-size="30.0" fill="#000000" transform="matrix(1.00, 0.00, -0.00, -1.00, 627.7, 63.5)"> </text><text xml:space="preserve" font-family="Futura-CondensedMedium,Futura" font-size="30.0" fill="#000000" transform="matrix(1.00, 0.00, -0.00, -1.00, 633.9, 63.5)">d</text><text xml:space="preserve" font-family="Futura-CondensedMedium,Futura" font-size="30.0" fill="#000000" transform="matrix(1.00, 0.00, -0.00, -1.00, 645.7, 63.5)">e</text><text xml:space="preserve" font-family="Futura-CondensedMedium,Futura" font-size="30.0" fill="#000000" transform="matrix(1.00, 0.00, -0.00, -1.00, 656.7, 63.5)">c</text><text xml:space="preserve" font-family="Futura-CondensedMedium,Futura" font-size="30.0" fill="#000000" transform="matrix(1.00, 0.00, -0.00, -1.00, 665.3, 63.5)">a</text><text xml:space="preserve" font-family="Futura-CondensedMedium,Futura" font-size="30.0" fill="#000000" transform="matrix(1.00, 0.00, -0.00, -1.00, 677.1, 63.5)">d</text><text xml:space="preserve" font-family="Futura-CondensedMedium,Futura" font-size="30.0" fill="#000000" transform="matrix(1.00, 0.00, -0.00, -1.00, 688.9, 63.5)">e</text></g></svg>