<?xml version="1.0" encoding="UTF-8" standalone="no"?><svg xmlns="http://www.w3.org/2000/svg" xmlns:xlink="http://www.w3.org/1999/xlink" clip-rule="evenodd" stroke-miterlimit="10" viewBox="0 0 328 32"><desc>SVG generated by Keynote</desc><defs></defs><g transform="matrix(1.00, 0.00, -0.00, -1.00, 0.0, 32.0)"><text xml:space="preserve" font-family="Ubuntu-Light,Ubuntu" font-size="36.0" fill="#000000" transform="matrix(1.00, 0.00, -0.00, -1.00, 0.7, 1.9)">T</text><text xml:space="preserve" font-family="Ubuntu-Light,Ubuntu" font-size="36.0" fill="#000000" transform="matrix(1.00, 0.00, -0.00, -1.00, 20.5, 1.9)">i</text><text xml:space="preserve" font-family="Ubuntu-Light,Ubuntu" font-size="36.0" fill="#000000" transform="matrix(1.00, 0.00, -0.00, -1.00, 29.0, 1.9)">m</text><text xml:space="preserve" font-family="Ubuntu-Light,Ubuntu" font-size="36.0" fill="#000000" transform="matrix(1.00, 0.00, -0.00, -1.00, 60.1, 1.9)">e</text><text xml:space="preserve" font-family="Ubuntu-Light,Ubuntu" font-size="36.0" fill="#000000" transform="matrix(1.00, 0.00, -0.00, -1.00, 79.8, 1.9)"> </text><text xml:space="preserve" font-family="Ubuntu-Light,Ubuntu" font-size="36.0" fill="#000000" transform="matrix(1.00, 0.00, -0.00, -1.00, 88.0, 1.9)">t</text><text xml:space="preserve" font-family="Ubuntu-Light,Ubuntu" font-size="36.0" fill="#000000" transform="matrix(1.00, 0.00, -0.00, -1.00, 101.9, 1.9)">o</text><text xml:space="preserve" font-family="Ubuntu-Light,Ubuntu" font-size="36.0" fill="#000000" transform="matrix(1.00, 0.00, -0.00, -1.00, 122.9, 1.9)"> </text><text xml:space="preserve" font-family="Ubuntu-Light,Ubuntu" font-size="36.0" fill="#000000" transform="matrix(1.00, 0.00, -0.00, -1.00, 131.1, 1.9)">d</text><text xml:space="preserve" font-family="Ubuntu-Light,Ubuntu" font-size="36.0" fill="#000000" transform="matrix(1.00, 0.00, -0.00, -1.00, 152.1, 1.9)">r</text><text xml:space="preserve" font-family="Ubuntu-Light,Ubuntu" font-size="36.0" fill="#000000" transform="matrix(1.00, 0.00, -0.00, -1.00, 165.5, 1.9)">e</text><text xml:space="preserve" font-family="Ubuntu-Light,Ubuntu" font-size="36.0" fill="#000000" transform="matrix(1.00, 0.00, -0.00, -1.00, 185.3, 1.9)">a</text><text xml:space="preserve" font-family="Ubuntu-Light,Ubuntu" font-size="36.0" fill="#000000" transform="matrix(1.00, 0.00, -0.00, -1.00, 203.6, 1.9)">m</text><text xml:space="preserve" font-family="Ubuntu-Light,Ubuntu" font-size="36.0" fill="#000000" transform="matrix(1.00, 0.00, -0.00, -1.00, 234.7, 1.9)"> </text><text xml:space="preserve" font-family="Ubuntu-Light,Ubuntu" font-size="36.0" fill="#000000" transform="matrix(1.00, 0.00, -0.00, -1.00, 242.9, 1.9)">c</text><text xml:space="preserve" font-family="Ubuntu-Light,Ubuntu" font-size="36.0" fill="#000000" transform="matrix(1.00, 0.00, -0.00, -1.00, 259.4, 1.9)">r</text><text xml:space="preserve" font-family="Ubuntu-Light,Ubuntu" font-size="36.0" fill="#000000" transform="matrix(1.00, 0.00, -0.00, -1.00, 272.9, 1.9)">u</text><text xml:space="preserve" font-family="Ubuntu-Light,Ubuntu" font-size="36.0" fill="#000000" transform="matrix(1.00, 0.00, -0.00, -1.00, 293.4, 1.9)">s</text><text xml:space="preserve" font-family="Ubuntu-Light,Ubuntu" font-size="36.0" fill="#000000" transform="matrix(1.00, 0.00, -0.00, -1.00, 308.8, 1.9)">h</text></g></svg>