<?xml version="1.0" encoding="UTF-8" standalone="no"?><svg xmlns="http://www.w3.org/2000/svg" xmlns:xlink="http://www.w3.org/1999/xlink" clip-rule="evenodd" stroke-miterlimit="10" viewBox="0 0 1024 768"><desc>SVG generated by Keynote</desc><defs></defs><g transform="matrix(1.00, 0.00, -0.00, -1.00, 0.0, 768.0)"><path d="M 0.0 768.0 L 1024.0 768.0 L 1024.0 0.0 L 0.0 0.0 Z M 0.0 768.0 " fill="#F5D327"></path><text xml:space="preserve" font-family="Futura-MediumItalic,Futura" font-style="italic" font-size="22.0" fill="#000000" transform="matrix(1.00, 0.00, -0.00, -1.00, 705.6, 709.1)">C</text><text xml:space="preserve" font-family="Futura-MediumItalic,Futura" font-style="italic" font-size="22.0" fill="#000000" transform="matrix(1.00, 0.00, -0.00, -1.00, 720.7, 709.1)">O</text><text xml:space="preserve" font-family="Futura-MediumItalic,Futura" font-style="italic" font-size="22.0" fill="#000000" transform="matrix(1.00, 0.00, -0.00, -1.00, 740.2, 709.1)">D</text><text xml:space="preserve" font-family="Futura-MediumItalic,Futura" font-style="italic" font-size="22.0" fill="#000000" transform="matrix(1.00, 0.00, -0.00, -1.00, 756.0, 709.1)">E</text><text xml:space="preserve" font-family="Futura-MediumItalic,Futura" font-style="italic" font-size="22.0" fill="#000000" transform="matrix(1.00, 0.00, -0.00, -1.00, 767.7, 709.1)"> </text><text xml:space="preserve" font-family="Futura-MediumItalic,Futura" font-style="italic" font-size="22.0" fill="#000000" transform="matrix(1.00, 0.00, -0.00, -1.00, 774.5, 709.1)">F</text><text xml:space="preserve" font-family="Futura-MediumItalic,Futura" font-style="italic" font-size="22.0" fill="#000000" transform="matrix(1.00, 0.00, -0.00, -1.00, 785.6, 709.1)">O</text><text xml:space="preserve" font-family="Futura-MediumItalic,Futura" font-style="italic" font-size="22.0" fill="#000000" transform="matrix(1.00, 0.00, -0.00, -1.00, 805.1, 709.1)">R</text><text xml:space="preserve" font-family="Futura-MediumItalic,Futura" font-style="italic" font-size="22.0" fill="#000000" transform="matrix(1.00, 0.00, -0.00, -1.00, 818.2, 709.1)"> </text><text xml:space="preserve" font-family="Futura-MediumItalic,Futura" font-style="italic" font-size="22.0" fill="#000000" transform="matrix(1.00, 0.00, -0.00, -1.00, 825.0, 709.1)">J</text><text xml:space="preserve" font-family="Futura-MediumItalic,Futura" font-style="italic" font-size="22.0" fill="#000000" transform="matrix(1.00, 0.00, -0.00, -1.00, 834.3, 709.1)">O</text><text xml:space="preserve" font-family="Futura-MediumItalic,Futura" font-style="italic" font-size="22.0" fill="#000000" transform="matrix(1.00, 0.00, -0.00, -1.00, 853.8, 709.1)">U</text><text xml:space="preserve" font-family="Futura-MediumItalic,Futura" font-style="italic" font-size="22.0" fill="#000000" transform="matrix(1.00, 0.00, -0.00, -1.00, 870.2, 709.1)">R</text><text xml:space="preserve" font-family="Futura-MediumItalic,Futura" font-style="italic" font-size="22.0" fill="#000000" transform="matrix(1.00, 0.00, -0.00, -1.00, 883.3, 709.1)">N</text><text xml:space="preserve" font-family="Futura-MediumItalic,Futura" font-style="italic" font-size="22.0" fill="#000000" transform="matrix(1.00, 0.00, -0.00, -1.00, 901.2, 709.1)">A</text><text xml:space="preserve" font-family="Futura-MediumItalic,Futura" font-style="italic" font-size="22.0" fill="#000000" transform="matrix(1.00, 0.00, -0.00, -1.00, 916.7, 709.1)">L</text><text xml:space="preserve" font-family="Futura-MediumItalic,Futura" font-style="italic" font-size="22.0" fill="#000000" transform="matrix(1.00, 0.00, -0.00, -1.00, 926.2, 709.1)">I</text><text xml:space="preserve" font-family="Futura-MediumItalic,Futura" font-style="italic" font-size="22.0" fill="#000000" transform="matrix(1.00, 0.00, -0.00, -1.00, 932.6, 709.1)">S</text><text xml:space="preserve" font-family="Futura-MediumItalic,Futura" font-style="italic" font-size="22.0" fill="#000000" transform="matrix(1.00, 0.00, -0.00, -1.00, 944.9, 709.1)">M</text><image xlink:href="../../2C2FA162-2720-49A3-AE69-33D9454C31D2/assets/9DA3715CA8D3956E89BC0E002B9B0D6B.png" width="1200.00" height="1200.00" transform="matrix(0.20, 0.00, -0.00, -0.20, 64.7, 432.4)"></image><image xlink:href="../../2C2FA162-2720-49A3-AE69-33D9454C31D2/assets/C75FC758A3AFB00CE81F74BE17447B87.png" width="1200.00" height="1200.00" transform="matrix(0.14, 0.00, -0.00, -0.14, 427.8, 300.5)"></image><image xlink:href="../../2C2FA162-2720-49A3-AE69-33D9454C31D2/assets/A9D492F937CB55AB42AEBDEE9BBB2F1E.png" width="1200.00" height="1200.00" transform="matrix(0.20, 0.00, -0.00, -0.20, 724.6, 432.4)"></image><image xlink:href="../../2C2FA162-2720-49A3-AE69-33D9454C31D2/assets/F2B08F2E6E71A6B382166079DE7644F4.png" width="1200.00" height="1200.00" transform="matrix(0.14, 0.00, -0.00, -0.14, 427.8, 497.8)"></image><path d="M -0.4 0.5 L 887.6 0.5 L 888.6 0.5 " fill="none" stroke="#000000" stroke-width="2.00" transform="matrix(1.00, 0.00, 0.00, -1.00, 63.4, 113.5)"></path><path d="M 951.0 108.2 L 960.6 113.0 L 951.0 117.8 Z M 951.0 108.2 " fill="#000000"></path><text xml:space="preserve" font-family="Futura-CondensedMedium,Futura" font-size="30.0" fill="#000000" transform="matrix(1.00, 0.00, -0.00, -1.00, 66.6, 63.5)">A</text><text xml:space="preserve" font-family="Futura-CondensedMedium,Futura" font-size="30.0" fill="#000000" transform="matrix(1.00, 0.00, -0.00, -1.00, 78.8, 63.5)">n</text><text xml:space="preserve" font-family="Futura-CondensedMedium,Futura" font-size="30.0" fill="#000000" transform="matrix(1.00, 0.00, -0.00, -1.00, 90.9, 63.5)">c</text><text xml:space="preserve" font-family="Futura-CondensedMedium,Futura" font-size="30.0" fill="#000000" transform="matrix(1.00, 0.00, -0.00, -1.00, 99.5, 63.5)">i</text><text xml:space="preserve" font-family="Futura-CondensedMedium,Futura" font-size="30.0" fill="#000000" transform="matrix(1.00, 0.00, -0.00, -1.00, 105.5, 63.5)">e</text><text xml:space="preserve" font-family="Futura-CondensedMedium,Futura" font-size="30.0" fill="#000000" transform="matrix(1.00, 0.00, -0.00, -1.00, 116.5, 63.5)">n</text><text xml:space="preserve" font-family="Futura-CondensedMedium,Futura" font-size="30.0" fill="#000000" transform="matrix(1.00, 0.00, -0.00, -1.00, 128.6, 63.5)">t</text><text xml:space="preserve" font-family="Futura-CondensedMedium,Futura" font-size="30.0" fill="#000000" transform="matrix(1.00, 0.00, -0.00, -1.00, 135.3, 63.5)"> </text><text xml:space="preserve" font-family="Futura-CondensedMedium,Futura" font-size="30.0" fill="#000000" transform="matrix(1.00, 0.00, -0.00, -1.00, 141.5, 63.5)">G</text><text xml:space="preserve" font-family="Futura-CondensedMedium,Futura" font-size="30.0" fill="#000000" transform="matrix(1.00, 0.00, -0.00, -1.00, 155.5, 63.5)">r</text><text xml:space="preserve" font-family="Futura-CondensedMedium,Futura" font-size="30.0" fill="#000000" transform="matrix(1.00, 0.00, -0.00, -1.00, 163.6, 63.5)">e</text><text xml:space="preserve" font-family="Futura-CondensedMedium,Futura" font-size="30.0" fill="#000000" transform="matrix(1.00, 0.00, -0.00, -1.00, 174.7, 63.5)">e</text><text xml:space="preserve" font-family="Futura-CondensedMedium,Futura" font-size="30.0" fill="#000000" transform="matrix(1.00, 0.00, -0.00, -1.00, 185.7, 63.5)">c</text><text xml:space="preserve" font-family="Futura-CondensedMedium,Futura" font-size="30.0" fill="#000000" transform="matrix(1.00, 0.00, -0.00, -1.00, 194.3, 63.5)">e</text><text xml:space="preserve" font-family="Futura-CondensedMedium,Futura" font-size="30.0" fill="#000000" transform="matrix(1.00, 0.00, -0.00, -1.00, 894.3, 63.5)">W</text><text xml:space="preserve" font-family="Futura-CondensedMedium,Futura" font-size="30.0" fill="#000000" transform="matrix(1.00, 0.00, -0.00, -1.00, 912.1, 63.5)">W</text><text xml:space="preserve" font-family="Futura-CondensedMedium,Futura" font-size="30.0" fill="#000000" transform="matrix(1.00, 0.00, -0.00, -1.00, 929.9, 63.5)">W</text><text xml:space="preserve" font-family="Futura-CondensedMedium,Futura" font-size="30.0" fill="#000000" transform="matrix(1.00, 0.00, -0.00, -1.00, 450.4, 60.3)">2</text><text xml:space="preserve" font-family="Futura-CondensedMedium,Futura" font-size="30.0" fill="#000000" transform="matrix(1.00, 0.00, -0.00, -1.00, 462.8, 60.3)">0</text><text xml:space="preserve" font-family="Futura-CondensedMedium,Futura" font-size="30.0" fill="#000000" transform="matrix(1.00, 0.00, -0.00, -1.00, 475.2, 60.3)">t</text><text xml:space="preserve" font-family="Futura-CondensedMedium,Futura" font-size="30.0" fill="#000000" transform="matrix(1.00, 0.00, -0.00, -1.00, 481.9, 60.3)">h</text><text xml:space="preserve" font-family="Futura-CondensedMedium,Futura" font-size="30.0" fill="#000000" transform="matrix(1.00, 0.00, -0.00, -1.00, 494.1, 60.3)"> </text><text xml:space="preserve" font-family="Futura-CondensedMedium,Futura" font-size="30.0" fill="#000000" transform="matrix(1.00, 0.00, -0.00, -1.00, 500.3, 60.3)">C</text><text xml:space="preserve" font-family="Futura-CondensedMedium,Futura" font-size="30.0" fill="#000000" transform="matrix(1.00, 0.00, -0.00, -1.00, 511.7, 60.3)">e</text><text xml:space="preserve" font-family="Futura-CondensedMedium,Futura" font-size="30.0" fill="#000000" transform="matrix(1.00, 0.00, -0.00, -1.00, 522.8, 60.3)">n</text><text xml:space="preserve" font-family="Futura-CondensedMedium,Futura" font-size="30.0" fill="#000000" transform="matrix(1.00, 0.00, -0.00, -1.00, 534.9, 60.3)">t</text><text xml:space="preserve" font-family="Futura-CondensedMedium,Futura" font-size="30.0" fill="#000000" transform="matrix(1.00, 0.00, -0.00, -1.00, 541.6, 60.3)">u</text><text xml:space="preserve" font-family="Futura-CondensedMedium,Futura" font-size="30.0" fill="#000000" transform="matrix(1.00, 0.00, -0.00, -1.00, 553.8, 60.3)">r</text><text xml:space="preserve" font-family="Futura-CondensedMedium,Futura" font-size="30.0" fill="#000000" transform="matrix(1.00, 0.00, -0.00, -1.00, 562.6, 60.3)">y</text></g></svg>